<?xml version="1.0" encoding="utf-8" standalone="no"?>
<!DOCTYPE svg PUBLIC "-//W3C//DTD SVG 1.1//EN"
  "http://www.w3.org/Graphics/SVG/1.1/DTD/svg11.dtd">
<!-- Created with matplotlib (https://matplotlib.org/) -->
<svg height="486.72pt" version="1.1" viewBox="0 0 708.48 486.72" width="708.48pt" xmlns="http://www.w3.org/2000/svg" xmlns:xlink="http://www.w3.org/1999/xlink">
 <metadata>
  <rdf:RDF xmlns:cc="http://creativecommons.org/ns#" xmlns:dc="http://purl.org/dc/elements/1.1/" xmlns:rdf="http://www.w3.org/1999/02/22-rdf-syntax-ns#">
   <cc:Work>
    <dc:type rdf:resource="http://purl.org/dc/dcmitype/StillImage"/>
    <dc:date>2021-12-01T21:57:18.835506</dc:date>
    <dc:format>image/svg+xml</dc:format>
    <dc:creator>
     <cc:Agent>
      <dc:title>Matplotlib v3.3.4, https://matplotlib.org/</dc:title>
     </cc:Agent>
    </dc:creator>
   </cc:Work>
  </rdf:RDF>
 </metadata>
 <defs>
  <style type="text/css">*{stroke-linecap:butt;stroke-linejoin:round;}</style>
 </defs>
 <g id="figure_1">
  <g id="patch_1">
   <path d="M 0 486.72 
L 708.48 486.72 
L 708.48 0 
L 0 0 
z
" style="fill:#ffffff;"/>
  </g>
  <g id="axes_1">
   <g id="text_1">
    <!-- $A$:		6.476e+03 -->
    <g transform="translate(436.417286 228.802344)scale(0.1 -0.1)">
     <defs>
      <path d="M 36.8125 72.90625 
L 48 72.90625 
L 61.53125 0 
L 51.21875 0 
L 48.1875 18.703125 
L 15.375 18.703125 
L 5.078125 0 
L -5.328125 0 
z
M 40.375 63.1875 
L 19.921875 26.90625 
L 46.6875 26.90625 
z
" id="DejaVuSans-Oblique-65"/>
      <path d="M 11.71875 12.40625 
L 22.015625 12.40625 
L 22.015625 0 
L 11.71875 0 
z
M 11.71875 51.703125 
L 22.015625 51.703125 
L 22.015625 39.3125 
L 11.71875 39.3125 
z
" id="DejaVuSans-58"/>
      <path id="DejaVuSans-32"/>
      <path d="M 33.015625 40.375 
Q 26.375 40.375 22.484375 35.828125 
Q 18.609375 31.296875 18.609375 23.390625 
Q 18.609375 15.53125 22.484375 10.953125 
Q 26.375 6.390625 33.015625 6.390625 
Q 39.65625 6.390625 43.53125 10.953125 
Q 47.40625 15.53125 47.40625 23.390625 
Q 47.40625 31.296875 43.53125 35.828125 
Q 39.65625 40.375 33.015625 40.375 
z
M 52.59375 71.296875 
L 52.59375 62.3125 
Q 48.875 64.0625 45.09375 64.984375 
Q 41.3125 65.921875 37.59375 65.921875 
Q 27.828125 65.921875 22.671875 59.328125 
Q 17.53125 52.734375 16.796875 39.40625 
Q 19.671875 43.65625 24.015625 45.921875 
Q 28.375 48.1875 33.59375 48.1875 
Q 44.578125 48.1875 50.953125 41.515625 
Q 57.328125 34.859375 57.328125 23.390625 
Q 57.328125 12.15625 50.6875 5.359375 
Q 44.046875 -1.421875 33.015625 -1.421875 
Q 20.359375 -1.421875 13.671875 8.265625 
Q 6.984375 17.96875 6.984375 36.375 
Q 6.984375 53.65625 15.1875 63.9375 
Q 23.390625 74.21875 37.203125 74.21875 
Q 40.921875 74.21875 44.703125 73.484375 
Q 48.484375 72.75 52.59375 71.296875 
z
" id="DejaVuSans-54"/>
      <path d="M 10.6875 12.40625 
L 21 12.40625 
L 21 0 
L 10.6875 0 
z
" id="DejaVuSans-46"/>
      <path d="M 37.796875 64.3125 
L 12.890625 25.390625 
L 37.796875 25.390625 
z
M 35.203125 72.90625 
L 47.609375 72.90625 
L 47.609375 25.390625 
L 58.015625 25.390625 
L 58.015625 17.1875 
L 47.609375 17.1875 
L 47.609375 0 
L 37.796875 0 
L 37.796875 17.1875 
L 4.890625 17.1875 
L 4.890625 26.703125 
z
" id="DejaVuSans-52"/>
      <path d="M 8.203125 72.90625 
L 55.078125 72.90625 
L 55.078125 68.703125 
L 28.609375 0 
L 18.3125 0 
L 43.21875 64.59375 
L 8.203125 64.59375 
z
" id="DejaVuSans-55"/>
      <path d="M 56.203125 29.59375 
L 56.203125 25.203125 
L 14.890625 25.203125 
Q 15.484375 15.921875 20.484375 11.0625 
Q 25.484375 6.203125 34.421875 6.203125 
Q 39.59375 6.203125 44.453125 7.46875 
Q 49.3125 8.734375 54.109375 11.28125 
L 54.109375 2.78125 
Q 49.265625 0.734375 44.1875 -0.34375 
Q 39.109375 -1.421875 33.890625 -1.421875 
Q 20.796875 -1.421875 13.15625 6.1875 
Q 5.515625 13.8125 5.515625 26.8125 
Q 5.515625 40.234375 12.765625 48.109375 
Q 20.015625 56 32.328125 56 
Q 43.359375 56 49.78125 48.890625 
Q 56.203125 41.796875 56.203125 29.59375 
z
M 47.21875 32.234375 
Q 47.125 39.59375 43.09375 43.984375 
Q 39.0625 48.390625 32.421875 48.390625 
Q 24.90625 48.390625 20.390625 44.140625 
Q 15.875 39.890625 15.1875 32.171875 
z
" id="DejaVuSans-101"/>
      <path d="M 46 62.703125 
L 46 35.5 
L 73.1875 35.5 
L 73.1875 27.203125 
L 46 27.203125 
L 46 0 
L 37.796875 0 
L 37.796875 27.203125 
L 10.59375 27.203125 
L 10.59375 35.5 
L 37.796875 35.5 
L 37.796875 62.703125 
z
" id="DejaVuSans-43"/>
      <path d="M 31.78125 66.40625 
Q 24.171875 66.40625 20.328125 58.90625 
Q 16.5 51.421875 16.5 36.375 
Q 16.5 21.390625 20.328125 13.890625 
Q 24.171875 6.390625 31.78125 6.390625 
Q 39.453125 6.390625 43.28125 13.890625 
Q 47.125 21.390625 47.125 36.375 
Q 47.125 51.421875 43.28125 58.90625 
Q 39.453125 66.40625 31.78125 66.40625 
z
M 31.78125 74.21875 
Q 44.046875 74.21875 50.515625 64.515625 
Q 56.984375 54.828125 56.984375 36.375 
Q 56.984375 17.96875 50.515625 8.265625 
Q 44.046875 -1.421875 31.78125 -1.421875 
Q 19.53125 -1.421875 13.0625 8.265625 
Q 6.59375 17.96875 6.59375 36.375 
Q 6.59375 54.828125 13.0625 64.515625 
Q 19.53125 74.21875 31.78125 74.21875 
z
" id="DejaVuSans-48"/>
      <path d="M 40.578125 39.3125 
Q 47.65625 37.796875 51.625 33 
Q 55.609375 28.21875 55.609375 21.1875 
Q 55.609375 10.40625 48.1875 4.484375 
Q 40.765625 -1.421875 27.09375 -1.421875 
Q 22.515625 -1.421875 17.65625 -0.515625 
Q 12.796875 0.390625 7.625 2.203125 
L 7.625 11.71875 
Q 11.71875 9.328125 16.59375 8.109375 
Q 21.484375 6.890625 26.8125 6.890625 
Q 36.078125 6.890625 40.9375 10.546875 
Q 45.796875 14.203125 45.796875 21.1875 
Q 45.796875 27.640625 41.28125 31.265625 
Q 36.765625 34.90625 28.71875 34.90625 
L 20.21875 34.90625 
L 20.21875 43.015625 
L 29.109375 43.015625 
Q 36.375 43.015625 40.234375 45.921875 
Q 44.09375 48.828125 44.09375 54.296875 
Q 44.09375 59.90625 40.109375 62.90625 
Q 36.140625 65.921875 28.71875 65.921875 
Q 24.65625 65.921875 20.015625 65.03125 
Q 15.375 64.15625 9.8125 62.3125 
L 9.8125 71.09375 
Q 15.4375 72.65625 20.34375 73.4375 
Q 25.25 74.21875 29.59375 74.21875 
Q 40.828125 74.21875 47.359375 69.109375 
Q 53.90625 64.015625 53.90625 55.328125 
Q 53.90625 49.265625 50.4375 45.09375 
Q 46.96875 40.921875 40.578125 39.3125 
z
" id="DejaVuSans-51"/>
     </defs>
     <use transform="translate(0 0.78125)" xlink:href="#DejaVuSans-Oblique-65"/>
     <use transform="translate(68.408203 0.78125)" xlink:href="#DejaVuSans-58"/>
     <use transform="translate(102.099609 0.78125)" xlink:href="#DejaVuSans-32"/>
     <use transform="translate(133.886719 0.78125)" xlink:href="#DejaVuSans-32"/>
     <use transform="translate(165.673828 0.78125)" xlink:href="#DejaVuSans-32"/>
     <use transform="translate(197.460938 0.78125)" xlink:href="#DejaVuSans-32"/>
     <use transform="translate(229.248047 0.78125)" xlink:href="#DejaVuSans-32"/>
     <use transform="translate(261.035156 0.78125)" xlink:href="#DejaVuSans-32"/>
     <use transform="translate(292.822266 0.78125)" xlink:href="#DejaVuSans-32"/>
     <use transform="translate(324.609375 0.78125)" xlink:href="#DejaVuSans-32"/>
     <use transform="translate(356.396484 0.78125)" xlink:href="#DejaVuSans-32"/>
     <use transform="translate(388.183594 0.78125)" xlink:href="#DejaVuSans-32"/>
     <use transform="translate(419.970703 0.78125)" xlink:href="#DejaVuSans-32"/>
     <use transform="translate(451.757812 0.78125)" xlink:href="#DejaVuSans-32"/>
     <use transform="translate(483.544922 0.78125)" xlink:href="#DejaVuSans-54"/>
     <use transform="translate(547.167969 0.78125)" xlink:href="#DejaVuSans-46"/>
     <use transform="translate(578.955078 0.78125)" xlink:href="#DejaVuSans-52"/>
     <use transform="translate(642.578125 0.78125)" xlink:href="#DejaVuSans-55"/>
     <use transform="translate(706.201172 0.78125)" xlink:href="#DejaVuSans-54"/>
     <use transform="translate(769.824219 0.78125)" xlink:href="#DejaVuSans-101"/>
     <use transform="translate(831.347656 0.78125)" xlink:href="#DejaVuSans-43"/>
     <use transform="translate(915.136719 0.78125)" xlink:href="#DejaVuSans-48"/>
     <use transform="translate(978.759766 0.78125)" xlink:href="#DejaVuSans-51"/>
    </g>
    <!-- $I_{xx}$:		4.525e+06 -->
    <g transform="translate(436.417286 240.000156)scale(0.1 -0.1)">
     <defs>
      <path d="M 16.890625 72.90625 
L 26.8125 72.90625 
L 12.59375 0 
L 2.6875 0 
z
" id="DejaVuSans-Oblique-73"/>
      <path d="M 60.015625 54.6875 
L 34.90625 27.875 
L 50.296875 0 
L 39.984375 0 
L 28.421875 21.6875 
L 8.296875 0 
L -2.59375 0 
L 24.3125 28.8125 
L 10.015625 54.6875 
L 20.3125 54.6875 
L 30.8125 34.90625 
L 49.125 54.6875 
z
" id="DejaVuSans-Oblique-120"/>
      <path d="M 10.796875 72.90625 
L 49.515625 72.90625 
L 49.515625 64.59375 
L 19.828125 64.59375 
L 19.828125 46.734375 
Q 21.96875 47.46875 24.109375 47.828125 
Q 26.265625 48.1875 28.421875 48.1875 
Q 40.625 48.1875 47.75 41.5 
Q 54.890625 34.8125 54.890625 23.390625 
Q 54.890625 11.625 47.5625 5.09375 
Q 40.234375 -1.421875 26.90625 -1.421875 
Q 22.3125 -1.421875 17.546875 -0.640625 
Q 12.796875 0.140625 7.71875 1.703125 
L 7.71875 11.625 
Q 12.109375 9.234375 16.796875 8.0625 
Q 21.484375 6.890625 26.703125 6.890625 
Q 35.15625 6.890625 40.078125 11.328125 
Q 45.015625 15.765625 45.015625 23.390625 
Q 45.015625 31 40.078125 35.4375 
Q 35.15625 39.890625 26.703125 39.890625 
Q 22.75 39.890625 18.8125 39.015625 
Q 14.890625 38.140625 10.796875 36.28125 
z
" id="DejaVuSans-53"/>
      <path d="M 19.1875 8.296875 
L 53.609375 8.296875 
L 53.609375 0 
L 7.328125 0 
L 7.328125 8.296875 
Q 12.9375 14.109375 22.625 23.890625 
Q 32.328125 33.6875 34.8125 36.53125 
Q 39.546875 41.84375 41.421875 45.53125 
Q 43.3125 49.21875 43.3125 52.78125 
Q 43.3125 58.59375 39.234375 62.25 
Q 35.15625 65.921875 28.609375 65.921875 
Q 23.96875 65.921875 18.8125 64.3125 
Q 13.671875 62.703125 7.8125 59.421875 
L 7.8125 69.390625 
Q 13.765625 71.78125 18.9375 73 
Q 24.125 74.21875 28.421875 74.21875 
Q 39.75 74.21875 46.484375 68.546875 
Q 53.21875 62.890625 53.21875 53.421875 
Q 53.21875 48.921875 51.53125 44.890625 
Q 49.859375 40.875 45.40625 35.40625 
Q 44.1875 33.984375 37.640625 27.21875 
Q 31.109375 20.453125 19.1875 8.296875 
z
" id="DejaVuSans-50"/>
     </defs>
     <use transform="translate(0 0.78125)" xlink:href="#DejaVuSans-Oblique-73"/>
     <use transform="translate(29.492188 -15.625)scale(0.7)" xlink:href="#DejaVuSans-Oblique-120"/>
     <use transform="translate(70.917969 -15.625)scale(0.7)" xlink:href="#DejaVuSans-Oblique-120"/>
     <use transform="translate(115.078125 0.78125)" xlink:href="#DejaVuSans-58"/>
     <use transform="translate(148.769531 0.78125)" xlink:href="#DejaVuSans-32"/>
     <use transform="translate(180.556641 0.78125)" xlink:href="#DejaVuSans-32"/>
     <use transform="translate(212.34375 0.78125)" xlink:href="#DejaVuSans-32"/>
     <use transform="translate(244.130859 0.78125)" xlink:href="#DejaVuSans-32"/>
     <use transform="translate(275.917969 0.78125)" xlink:href="#DejaVuSans-32"/>
     <use transform="translate(307.705078 0.78125)" xlink:href="#DejaVuSans-32"/>
     <use transform="translate(339.492188 0.78125)" xlink:href="#DejaVuSans-32"/>
     <use transform="translate(371.279297 0.78125)" xlink:href="#DejaVuSans-32"/>
     <use transform="translate(403.066406 0.78125)" xlink:href="#DejaVuSans-32"/>
     <use transform="translate(434.853516 0.78125)" xlink:href="#DejaVuSans-32"/>
     <use transform="translate(466.640625 0.78125)" xlink:href="#DejaVuSans-32"/>
     <use transform="translate(498.427734 0.78125)" xlink:href="#DejaVuSans-32"/>
     <use transform="translate(530.214844 0.78125)" xlink:href="#DejaVuSans-32"/>
     <use transform="translate(562.001953 0.78125)" xlink:href="#DejaVuSans-32"/>
     <use transform="translate(593.789062 0.78125)" xlink:href="#DejaVuSans-32"/>
     <use transform="translate(625.576172 0.78125)" xlink:href="#DejaVuSans-52"/>
     <use transform="translate(689.199219 0.78125)" xlink:href="#DejaVuSans-46"/>
     <use transform="translate(720.986328 0.78125)" xlink:href="#DejaVuSans-53"/>
     <use transform="translate(784.609375 0.78125)" xlink:href="#DejaVuSans-50"/>
     <use transform="translate(848.232422 0.78125)" xlink:href="#DejaVuSans-53"/>
     <use transform="translate(911.855469 0.78125)" xlink:href="#DejaVuSans-101"/>
     <use transform="translate(973.378906 0.78125)" xlink:href="#DejaVuSans-43"/>
     <use transform="translate(1057.167969 0.78125)" xlink:href="#DejaVuSans-48"/>
     <use transform="translate(1120.791016 0.78125)" xlink:href="#DejaVuSans-54"/>
    </g>
    <!-- $I_{yy}$:		7.498e+07 -->
    <g transform="translate(436.417286 251.197969)scale(0.1 -0.1)">
     <defs>
      <path d="M 24.8125 -5.078125 
Q 18.5625 -15.578125 14.625 -18.1875 
Q 10.6875 -20.796875 4.59375 -20.796875 
L -2.484375 -20.796875 
L -0.984375 -13.28125 
L 4.203125 -13.28125 
Q 7.953125 -13.28125 10.59375 -11.234375 
Q 13.234375 -9.1875 16.5 -3.21875 
L 19.28125 2 
L 7.171875 54.6875 
L 16.703125 54.6875 
L 25.78125 12.796875 
L 50.875 54.6875 
L 60.296875 54.6875 
z
" id="DejaVuSans-Oblique-121"/>
      <path d="M 10.984375 1.515625 
L 10.984375 10.5 
Q 14.703125 8.734375 18.5 7.8125 
Q 22.3125 6.890625 25.984375 6.890625 
Q 35.75 6.890625 40.890625 13.453125 
Q 46.046875 20.015625 46.78125 33.40625 
Q 43.953125 29.203125 39.59375 26.953125 
Q 35.25 24.703125 29.984375 24.703125 
Q 19.046875 24.703125 12.671875 31.3125 
Q 6.296875 37.9375 6.296875 49.421875 
Q 6.296875 60.640625 12.9375 67.421875 
Q 19.578125 74.21875 30.609375 74.21875 
Q 43.265625 74.21875 49.921875 64.515625 
Q 56.59375 54.828125 56.59375 36.375 
Q 56.59375 19.140625 48.40625 8.859375 
Q 40.234375 -1.421875 26.421875 -1.421875 
Q 22.703125 -1.421875 18.890625 -0.6875 
Q 15.09375 0.046875 10.984375 1.515625 
z
M 30.609375 32.421875 
Q 37.25 32.421875 41.125 36.953125 
Q 45.015625 41.5 45.015625 49.421875 
Q 45.015625 57.28125 41.125 61.84375 
Q 37.25 66.40625 30.609375 66.40625 
Q 23.96875 66.40625 20.09375 61.84375 
Q 16.21875 57.28125 16.21875 49.421875 
Q 16.21875 41.5 20.09375 36.953125 
Q 23.96875 32.421875 30.609375 32.421875 
z
" id="DejaVuSans-57"/>
      <path d="M 31.78125 34.625 
Q 24.75 34.625 20.71875 30.859375 
Q 16.703125 27.09375 16.703125 20.515625 
Q 16.703125 13.921875 20.71875 10.15625 
Q 24.75 6.390625 31.78125 6.390625 
Q 38.8125 6.390625 42.859375 10.171875 
Q 46.921875 13.96875 46.921875 20.515625 
Q 46.921875 27.09375 42.890625 30.859375 
Q 38.875 34.625 31.78125 34.625 
z
M 21.921875 38.8125 
Q 15.578125 40.375 12.03125 44.71875 
Q 8.5 49.078125 8.5 55.328125 
Q 8.5 64.0625 14.71875 69.140625 
Q 20.953125 74.21875 31.78125 74.21875 
Q 42.671875 74.21875 48.875 69.140625 
Q 55.078125 64.0625 55.078125 55.328125 
Q 55.078125 49.078125 51.53125 44.71875 
Q 48 40.375 41.703125 38.8125 
Q 48.828125 37.15625 52.796875 32.3125 
Q 56.78125 27.484375 56.78125 20.515625 
Q 56.78125 9.90625 50.3125 4.234375 
Q 43.84375 -1.421875 31.78125 -1.421875 
Q 19.734375 -1.421875 13.25 4.234375 
Q 6.78125 9.90625 6.78125 20.515625 
Q 6.78125 27.484375 10.78125 32.3125 
Q 14.796875 37.15625 21.921875 38.8125 
z
M 18.3125 54.390625 
Q 18.3125 48.734375 21.84375 45.5625 
Q 25.390625 42.390625 31.78125 42.390625 
Q 38.140625 42.390625 41.71875 45.5625 
Q 45.3125 48.734375 45.3125 54.390625 
Q 45.3125 60.0625 41.71875 63.234375 
Q 38.140625 66.40625 31.78125 66.40625 
Q 25.390625 66.40625 21.84375 63.234375 
Q 18.3125 60.0625 18.3125 54.390625 
z
" id="DejaVuSans-56"/>
     </defs>
     <use transform="translate(0 0.78125)" xlink:href="#DejaVuSans-Oblique-73"/>
     <use transform="translate(29.492188 -15.625)scale(0.7)" xlink:href="#DejaVuSans-Oblique-121"/>
     <use transform="translate(70.917969 -15.625)scale(0.7)" xlink:href="#DejaVuSans-Oblique-121"/>
     <use transform="translate(115.078125 0.78125)" xlink:href="#DejaVuSans-58"/>
     <use transform="translate(148.769531 0.78125)" xlink:href="#DejaVuSans-32"/>
     <use transform="translate(180.556641 0.78125)" xlink:href="#DejaVuSans-32"/>
     <use transform="translate(212.34375 0.78125)" xlink:href="#DejaVuSans-32"/>
     <use transform="translate(244.130859 0.78125)" xlink:href="#DejaVuSans-32"/>
     <use transform="translate(275.917969 0.78125)" xlink:href="#DejaVuSans-32"/>
     <use transform="translate(307.705078 0.78125)" xlink:href="#DejaVuSans-32"/>
     <use transform="translate(339.492188 0.78125)" xlink:href="#DejaVuSans-32"/>
     <use transform="translate(371.279297 0.78125)" xlink:href="#DejaVuSans-32"/>
     <use transform="translate(403.066406 0.78125)" xlink:href="#DejaVuSans-32"/>
     <use transform="translate(434.853516 0.78125)" xlink:href="#DejaVuSans-32"/>
     <use transform="translate(466.640625 0.78125)" xlink:href="#DejaVuSans-32"/>
     <use transform="translate(498.427734 0.78125)" xlink:href="#DejaVuSans-32"/>
     <use transform="translate(530.214844 0.78125)" xlink:href="#DejaVuSans-32"/>
     <use transform="translate(562.001953 0.78125)" xlink:href="#DejaVuSans-32"/>
     <use transform="translate(593.789062 0.78125)" xlink:href="#DejaVuSans-32"/>
     <use transform="translate(625.576172 0.78125)" xlink:href="#DejaVuSans-55"/>
     <use transform="translate(689.199219 0.78125)" xlink:href="#DejaVuSans-46"/>
     <use transform="translate(720.986328 0.78125)" xlink:href="#DejaVuSans-52"/>
     <use transform="translate(784.609375 0.78125)" xlink:href="#DejaVuSans-57"/>
     <use transform="translate(848.232422 0.78125)" xlink:href="#DejaVuSans-56"/>
     <use transform="translate(911.855469 0.78125)" xlink:href="#DejaVuSans-101"/>
     <use transform="translate(973.378906 0.78125)" xlink:href="#DejaVuSans-43"/>
     <use transform="translate(1057.167969 0.78125)" xlink:href="#DejaVuSans-48"/>
     <use transform="translate(1120.791016 0.78125)" xlink:href="#DejaVuSans-55"/>
    </g>
    <!-- $y_c$:		33.39 -->
    <g transform="translate(436.417286 263.416094)scale(0.1 -0.1)">
     <defs>
      <path d="M 53.609375 52.59375 
L 51.8125 43.703125 
Q 48.578125 46.046875 44.9375 47.21875 
Q 41.3125 48.390625 37.40625 48.390625 
Q 33.109375 48.390625 29.21875 46.875 
Q 25.34375 45.359375 22.703125 42.578125 
Q 18.5 38.328125 16.203125 32.609375 
Q 13.921875 26.90625 13.921875 20.796875 
Q 13.921875 13.421875 17.609375 9.8125 
Q 21.296875 6.203125 28.8125 6.203125 
Q 32.515625 6.203125 36.6875 7.328125 
Q 40.875 8.453125 45.40625 10.6875 
L 43.703125 1.8125 
Q 39.796875 0.203125 35.671875 -0.609375 
Q 31.546875 -1.421875 27.203125 -1.421875 
Q 16.3125 -1.421875 10.453125 4.015625 
Q 4.59375 9.46875 4.59375 19.578125 
Q 4.59375 28.078125 7.640625 35.234375 
Q 10.6875 42.390625 16.703125 48.09375 
Q 20.796875 52 26.3125 54 
Q 31.84375 56 38.375 56 
Q 42.1875 56 45.9375 55.140625 
Q 49.703125 54.296875 53.609375 52.59375 
z
" id="DejaVuSans-Oblique-99"/>
     </defs>
     <use transform="translate(0 0.78125)" xlink:href="#DejaVuSans-Oblique-121"/>
     <use transform="translate(59.179688 -15.625)scale(0.7)" xlink:href="#DejaVuSans-Oblique-99"/>
     <use transform="translate(100.400391 0.78125)" xlink:href="#DejaVuSans-58"/>
     <use transform="translate(134.091797 0.78125)" xlink:href="#DejaVuSans-32"/>
     <use transform="translate(165.878906 0.78125)" xlink:href="#DejaVuSans-32"/>
     <use transform="translate(197.666016 0.78125)" xlink:href="#DejaVuSans-32"/>
     <use transform="translate(229.453125 0.78125)" xlink:href="#DejaVuSans-32"/>
     <use transform="translate(261.240234 0.78125)" xlink:href="#DejaVuSans-32"/>
     <use transform="translate(293.027344 0.78125)" xlink:href="#DejaVuSans-32"/>
     <use transform="translate(324.814453 0.78125)" xlink:href="#DejaVuSans-32"/>
     <use transform="translate(356.601562 0.78125)" xlink:href="#DejaVuSans-32"/>
     <use transform="translate(388.388672 0.78125)" xlink:href="#DejaVuSans-32"/>
     <use transform="translate(420.175781 0.78125)" xlink:href="#DejaVuSans-32"/>
     <use transform="translate(451.962891 0.78125)" xlink:href="#DejaVuSans-51"/>
     <use transform="translate(515.585938 0.78125)" xlink:href="#DejaVuSans-51"/>
     <use transform="translate(579.208984 0.78125)" xlink:href="#DejaVuSans-46"/>
     <use transform="translate(610.996094 0.78125)" xlink:href="#DejaVuSans-51"/>
     <use transform="translate(674.619141 0.78125)" xlink:href="#DejaVuSans-57"/>
    </g>
   </g>
  </g>
  <g id="axes_2">
   <g id="PatchCollection_1">
    <path clip-path="url(#pe764a054e8)" d="M 5.034331 217.753978 
L 411.852581 217.753978 
L 411.852581 209.98488 
L 5.034331 209.98488 
z
" style="fill:#808080;fill-opacity:0.3;stroke:#808080;stroke-opacity:0.3;"/>
    <path clip-path="url(#pe764a054e8)" d="M 37.346718 279.906766 
L 379.540194 279.906766 
L 379.540194 273.417803 
L 37.346718 273.417803 
z
" style="fill:#808080;fill-opacity:0.3;stroke:#808080;stroke-opacity:0.3;"/>
    <path clip-path="url(#pe764a054e8)" d="M 37.346718 273.417803 
L 45.822098 273.417803 
L 45.822098 217.753978 
L 37.346718 217.753978 
z
" style="fill:#808080;fill-opacity:0.3;stroke:#808080;stroke-opacity:0.3;"/>
    <path clip-path="url(#pe764a054e8)" d="M 148.586083 273.417803 
L 157.061464 273.417803 
L 157.061464 217.753978 
L 148.586083 217.753978 
z
" style="fill:#808080;fill-opacity:0.3;stroke:#808080;stroke-opacity:0.3;"/>
    <path clip-path="url(#pe764a054e8)" d="M 259.825448 273.417803 
L 268.300829 273.417803 
L 268.300829 217.753978 
L 259.825448 217.753978 
z
" style="fill:#808080;fill-opacity:0.3;stroke:#808080;stroke-opacity:0.3;"/>
    <path clip-path="url(#pe764a054e8)" d="M 371.064814 273.417803 
L 379.540194 273.417803 
L 379.540194 217.753978 
L 371.064814 217.753978 
z
" style="fill:#808080;fill-opacity:0.3;stroke:#808080;stroke-opacity:0.3;"/>
   </g>
   <g id="PathCollection_1">
    <defs>
     <path d="M 0 3 
C 0.795609 3 1.55874 2.683901 2.12132 2.12132 
C 2.683901 1.55874 3 0.795609 3 0 
C 3 -0.795609 2.683901 -1.55874 2.12132 -2.12132 
C 1.55874 -2.683901 0.795609 -3 0 -3 
C -0.795609 -3 -1.55874 -2.683901 -2.12132 -2.12132 
C -2.683901 -1.55874 -3 -0.795609 -3 0 
C -3 0.795609 -2.683901 1.55874 -2.12132 2.12132 
C -1.55874 2.683901 -0.795609 3 0 3 
z
" id="mb17a9bede9" style="stroke:#1f77b4;"/>
    </defs>
    <g clip-path="url(#pe764a054e8)">
     <use style="fill:#1f77b4;stroke:#1f77b4;" x="208.443456" xlink:href="#mb17a9bede9" y="241.28786"/>
    </g>
   </g>
   <g id="PathCollection_2">
    <defs>
     <path d="M 0 3 
C 0.795609 3 1.55874 2.683901 2.12132 2.12132 
C 2.683901 1.55874 3 0.795609 3 0 
C 3 -0.795609 2.683901 -1.55874 2.12132 -2.12132 
C 1.55874 -2.683901 0.795609 -3 0 -3 
C -0.795609 -3 -1.55874 -2.683901 -2.12132 -2.12132 
C -2.683901 -1.55874 -3 -0.795609 -3 0 
C -3 0.795609 -2.683901 1.55874 -2.12132 2.12132 
C -1.55874 2.683901 -0.795609 3 0 3 
z
" id="m171929aa6f" style="stroke:#ff7f0e;"/>
    </defs>
    <g clip-path="url(#pe764a054e8)">
     <use style="fill:#ff7f0e;stroke:#ff7f0e;" x="208.443456" xlink:href="#m171929aa6f" y="276.662285"/>
    </g>
   </g>
  </g>
 </g>
 <defs>
  <clipPath id="pe764a054e8">
   <rect height="73.417981" width="410.886432" x="3.00024" y="206.65101"/>
  </clipPath>
 </defs>
</svg>
